<svg width="61" height="60" viewBox="0 0 61 60" fill="none" xmlns="http://www.w3.org/2000/svg">
<path d="M55.5 15.7749H30.5C29.475 15.7749 28.625 14.9249 28.625 13.8999C28.625 12.8749 29.475 12.0249 30.5 12.0249H55.5C56.525 12.0249 57.375 12.8749 57.375 13.8999C57.375 14.9499 56.525 15.7749 55.5 15.7749Z" fill="#FD8521"/>
<path d="M49.9494 28.125H36.0744C30.5994 28.125 28.6494 26.2 28.6494 20.75V10.5C28.6494 5.05 30.5994 3.125 36.0744 3.125H49.9494C55.4244 3.125 57.3744 5.05 57.3744 10.5V20.775C57.3744 26.2 55.4244 28.125 49.9494 28.125ZM36.0494 6.875C32.6494 6.875 32.3744 7.15 32.3744 10.5V20.775C32.3744 24.125 32.6494 24.4 36.0494 24.4H49.9244C53.3244 24.4 53.5994 24.125 53.5994 20.775V10.5C53.5994 7.15 53.3244 6.875 49.9244 6.875H36.0494Z" fill="#FD8521"/>
<path d="M30.5 44.5249H5.5C4.475 44.5249 3.625 43.6749 3.625 42.6499C3.625 41.6249 4.475 40.7749 5.5 40.7749H30.5C31.525 40.7749 32.375 41.6249 32.375 42.6499C32.375 43.6999 31.525 44.5249 30.5 44.5249Z" fill="#FD8521"/>
<path d="M24.9494 56.875H11.0744C5.59942 56.875 3.64941 54.95 3.64941 49.5V39.25C3.64941 33.8 5.59942 31.875 11.0744 31.875H24.9494C30.4244 31.875 32.3744 33.8 32.3744 39.25V49.525C32.3744 54.95 30.4244 56.875 24.9494 56.875ZM11.0494 35.625C7.64939 35.625 7.37439 35.9 7.37439 39.25V49.525C7.37439 52.875 7.64939 53.15 11.0494 53.15H24.9244C28.3244 53.15 28.5994 52.875 28.5994 49.525V39.25C28.5994 35.9 28.3244 35.625 24.9244 35.625H11.0494Z" fill="#FD8521"/>
<path d="M38.0005 56.8751C37.3255 56.8751 36.7005 56.5001 36.3755 55.9251C36.0505 55.3251 36.0505 54.6251 36.4005 54.0251L39.0255 49.6501C39.5505 48.7751 40.7005 48.4751 41.6005 49.0001C42.5005 49.5251 42.7755 50.6751 42.2505 51.5751L41.5755 52.7001C48.4755 51.0751 53.6505 44.8751 53.6505 37.4751C53.6505 36.4501 54.5005 35.6001 55.5255 35.6001C56.5505 35.6001 57.4005 36.4501 57.4005 37.4751C57.3755 48.1751 48.6755 56.8751 38.0005 56.8751Z" fill="#FD8521"/>
<path d="M5.5 24.375C4.475 24.375 3.625 23.525 3.625 22.5C3.625 11.825 12.325 3.125 23 3.125C23.675 3.125 24.3 3.5 24.625 4.075C24.95 4.675 24.95 5.375 24.6 5.975L21.975 10.35C21.45 11.225 20.3 11.525 19.4 11C18.5 10.475 18.225 9.325 18.75 8.425L19.425 7.3C12.525 8.925 7.34998 15.125 7.34998 22.525C7.37498 23.525 6.525 24.375 5.5 24.375Z" fill="#FD8521"/>
</svg>
