<svg width="24" height="24" viewBox="0 0 24 24" fill="none" xmlns="http://www.w3.org/2000/svg">
<path d="M17.4499 22.75C16.3199 22.75 15.1299 22.48 13.8999 21.96C12.6999 21.45 11.4899 20.75 10.3099 19.9C9.13988 19.04 8.00988 18.08 6.93988 17.03C5.87988 15.96 4.91988 14.83 4.06988 13.67C3.20988 12.47 2.51988 11.27 2.02988 10.11C1.50988 8.87 1.24988 7.67 1.24988 6.54C1.24988 5.76 1.38988 5.02 1.65988 4.33C1.93988 3.62 2.38988 2.96 2.99988 2.39C3.76988 1.63 4.64988 1.25 5.58988 1.25C5.97988 1.25 6.37988 1.34 6.71988 1.5C7.10988 1.68 7.43988 1.95 7.67988 2.31L9.99988 5.58C10.2099 5.87 10.3699 6.15 10.4799 6.43C10.6099 6.73 10.6799 7.03 10.6799 7.32C10.6799 7.7 10.5699 8.07 10.3599 8.42C10.2099 8.69 9.97988 8.98 9.68988 9.27L9.00988 9.98C9.01988 10.01 9.02988 10.03 9.03988 10.05C9.15988 10.26 9.39988 10.62 9.85988 11.16C10.3499 11.72 10.8099 12.23 11.2699 12.7C11.8599 13.28 12.3499 13.74 12.8099 14.12C13.3799 14.6 13.7499 14.84 13.9699 14.95L13.9499 15L14.6799 14.28C14.9899 13.97 15.2899 13.74 15.5799 13.59C16.1299 13.25 16.8299 13.19 17.5299 13.48C17.7899 13.59 18.0699 13.74 18.3699 13.95L21.6899 16.31C22.0599 16.56 22.3299 16.88 22.4899 17.26C22.6399 17.64 22.7099 17.99 22.7099 18.34C22.7099 18.82 22.5999 19.3 22.3899 19.75C22.1799 20.2 21.9199 20.59 21.5899 20.95C21.0199 21.58 20.3999 22.03 19.6799 22.32C18.9899 22.6 18.2399 22.75 17.4499 22.75ZM5.58988 2.75C5.03988 2.75 4.52988 2.99 4.03988 3.47C3.57988 3.9 3.25988 4.37 3.05988 4.88C2.84988 5.4 2.74988 5.95 2.74988 6.54C2.74988 7.47 2.96988 8.48 3.40988 9.52C3.85988 10.58 4.48988 11.68 5.28988 12.78C6.08988 13.88 6.99988 14.95 7.99988 15.96C8.99988 16.95 10.0799 17.87 11.1899 18.68C12.2699 19.47 13.3799 20.11 14.4799 20.57C16.1899 21.3 17.7899 21.47 19.1099 20.92C19.6199 20.71 20.0699 20.39 20.4799 19.93C20.7099 19.68 20.8899 19.41 21.0399 19.09C21.1599 18.84 21.2199 18.58 21.2199 18.32C21.2199 18.16 21.1899 18 21.1099 17.82C21.0799 17.76 21.0199 17.65 20.8299 17.52L17.5099 15.16C17.3099 15.02 17.1299 14.92 16.9599 14.85C16.7399 14.76 16.6499 14.67 16.3099 14.88C16.1099 14.98 15.9299 15.13 15.7299 15.33L14.9699 16.08C14.5799 16.46 13.9799 16.55 13.5199 16.38L13.2499 16.26C12.8399 16.04 12.3599 15.7 11.8299 15.25C11.3499 14.84 10.8299 14.36 10.1999 13.74C9.70988 13.24 9.21988 12.71 8.70988 12.12C8.23988 11.57 7.89988 11.1 7.68988 10.71L7.56988 10.41C7.50988 10.18 7.48988 10.05 7.48988 9.91C7.48988 9.55 7.61988 9.23 7.86988 8.98L8.61988 8.2C8.81988 8 8.96988 7.81 9.06988 7.64C9.14988 7.51 9.17988 7.4 9.17988 7.3C9.17988 7.22 9.14988 7.1 9.09988 6.98C9.02988 6.82 8.91988 6.64 8.77988 6.45L6.45988 3.17C6.35988 3.03 6.23988 2.93 6.08988 2.86C5.92988 2.79 5.75988 2.75 5.58988 2.75ZM13.9499 15.01L13.7899 15.69L14.0599 14.99C14.0099 14.98 13.9699 14.99 13.9499 15.01Z" fill="black" fill-opacity="0.87"/>
<path d="M18.4999 9.75C18.0899 9.75 17.7499 9.41 17.7499 9C17.7499 8.64 17.3899 7.89 16.7899 7.25C16.1999 6.62 15.5499 6.25 14.9999 6.25C14.5899 6.25 14.2499 5.91 14.2499 5.5C14.2499 5.09 14.5899 4.75 14.9999 4.75C15.9699 4.75 16.9899 5.27 17.8799 6.22C18.7099 7.11 19.2499 8.2 19.2499 9C19.2499 9.41 18.9099 9.75 18.4999 9.75Z" fill="black" fill-opacity="0.87"/>
<path d="M21.9999 9.75C21.5899 9.75 21.2499 9.41 21.2499 9C21.2499 5.55 18.4499 2.75 14.9999 2.75C14.5899 2.75 14.2499 2.41 14.2499 2C14.2499 1.59 14.5899 1.25 14.9999 1.25C19.2699 1.25 22.7499 4.73 22.7499 9C22.7499 9.41 22.4099 9.75 21.9999 9.75Z" fill="black" fill-opacity="0.87"/>
</svg>
