<svg width="60" height="60" viewBox="0 0 60 60" fill="none" xmlns="http://www.w3.org/2000/svg">
<path d="M32.4994 36.875H29.9994C28.9744 36.875 28.1244 36.025 28.1244 35C28.1244 33.975 28.9744 33.125 29.9994 33.125H32.4994C34.2244 33.125 35.6244 31.725 35.6244 30V6.875H14.9994C12.0494 6.875 9.34938 8.47496 7.89938 11.05C7.39938 11.95 6.24948 12.2751 5.34948 11.7751C4.44948 11.2751 4.12438 10.125 4.62438 9.22501C6.72438 5.47501 10.6994 3.125 14.9994 3.125H37.4994C38.5244 3.125 39.3744 3.975 39.3744 5V30C39.3744 33.8 36.2994 36.875 32.4994 36.875Z" fill="#FD8521"/>
<path d="M47.5 51.875H45C43.975 51.875 43.125 51.025 43.125 50C43.125 48.275 41.725 46.875 40 46.875C38.275 46.875 36.875 48.275 36.875 50C36.875 51.025 36.025 51.875 35 51.875H25C23.975 51.875 23.125 51.025 23.125 50C23.125 48.275 21.725 46.875 20 46.875C18.275 46.875 16.875 48.275 16.875 50C16.875 51.025 16.025 51.875 15 51.875H12.5C7.325 51.875 3.125 47.675 3.125 42.5C3.125 41.475 3.975 40.625 5 40.625C6.025 40.625 6.875 41.475 6.875 42.5C6.875 45.6 9.4 48.125 12.5 48.125H13.3749C14.1999 45.25 16.85 43.125 20 43.125C23.15 43.125 25.8001 45.25 26.6251 48.125H33.4C34.225 45.25 36.875 43.125 40.025 43.125C43.175 43.125 45.8249 45.25 46.6499 48.125H47.5C50.6 48.125 53.125 45.6 53.125 42.5V36.875H47.5C45.1 36.875 43.125 34.9 43.125 32.5V25C43.125 22.6 45.075 20.625 47.5 20.625L44.825 15.95C44.275 14.975 43.2251 14.375 42.1001 14.375H39.375V30C39.375 33.8 36.3 36.875 32.5 36.875H30C28.975 36.875 28.125 36.025 28.125 35C28.125 33.975 28.975 33.125 30 33.125H32.5C34.225 33.125 35.625 31.725 35.625 30V12.5C35.625 11.475 36.475 10.625 37.5 10.625H42.1001C44.5751 10.625 46.85 11.95 48.075 14.1L52.35 21.575C52.675 22.15 52.675 22.875 52.35 23.45C52.025 24.025 51.3999 24.375 50.7249 24.375H47.5C47.15 24.375 46.875 24.65 46.875 25V32.5C46.875 32.85 47.15 33.125 47.5 33.125H55C56.025 33.125 56.875 33.975 56.875 35V42.5C56.875 47.675 52.675 51.875 47.5 51.875Z" fill="#FD8521"/>
<path d="M20 56.875C16.2 56.875 13.125 53.8 13.125 50C13.125 46.2 16.2 43.125 20 43.125C23.8 43.125 26.875 46.2 26.875 50C26.875 53.8 23.8 56.875 20 56.875ZM20 46.875C18.275 46.875 16.875 48.275 16.875 50C16.875 51.725 18.275 53.125 20 53.125C21.725 53.125 23.125 51.725 23.125 50C23.125 48.275 21.725 46.875 20 46.875Z" fill="#FD8521"/>
<path d="M40 56.875C36.2 56.875 33.125 53.8 33.125 50C33.125 46.2 36.2 43.125 40 43.125C43.8 43.125 46.875 46.2 46.875 50C46.875 53.8 43.8 56.875 40 56.875ZM40 46.875C38.275 46.875 36.875 48.275 36.875 50C36.875 51.725 38.275 53.125 40 53.125C41.725 53.125 43.125 51.725 43.125 50C43.125 48.275 41.725 46.875 40 46.875Z" fill="#FD8521"/>
<path d="M55 36.875H47.5C45.1 36.875 43.125 34.9 43.125 32.5V25C43.125 22.6 45.1 20.625 47.5 20.625H50.7249C51.3999 20.625 52.025 20.975 52.35 21.575L56.6251 29.075C56.7751 29.35 56.875 29.675 56.875 30V35C56.875 36.025 56.025 36.875 55 36.875ZM47.5 24.375C47.15 24.375 46.875 24.65 46.875 25V32.5C46.875 32.85 47.15 33.125 47.5 33.125H53.125V30.5L49.6249 24.375H47.5Z" fill="#FD8521"/>
<path d="M20 21.875H5C3.975 21.875 3.125 21.025 3.125 20C3.125 18.975 3.975 18.125 5 18.125H20C21.025 18.125 21.875 18.975 21.875 20C21.875 21.025 21.025 21.875 20 21.875Z" fill="#FD8521"/>
<path d="M15 29.375H5C3.975 29.375 3.125 28.525 3.125 27.5C3.125 26.475 3.975 25.625 5 25.625H15C16.025 25.625 16.875 26.475 16.875 27.5C16.875 28.525 16.025 29.375 15 29.375Z" fill="#FD8521"/>
<path d="M10 36.875H5C3.975 36.875 3.125 36.025 3.125 35C3.125 33.975 3.975 33.125 5 33.125H10C11.025 33.125 11.875 33.975 11.875 35C11.875 36.025 11.025 36.875 10 36.875Z" fill="#FD8521"/>
</svg>
