<svg width="23" height="16" viewBox="0 0 23 16" fill="none" xmlns="http://www.w3.org/2000/svg">
<g clip-path="url(#clip0_449_5275)">
<mask id="mask0_449_5275" style="mask-type:alpha" maskUnits="userSpaceOnUse" x="-1" y="0" width="24" height="16">
<path d="M20.8094 0H2.19035C0.980587 0 -0.00012207 0.955126 -0.00012207 2.13333V13.8667C-0.00012207 15.0449 0.980587 16 2.19035 16H20.8094C22.0192 16 22.9999 15.0449 22.9999 13.8667V2.13333C22.9999 0.955126 22.0192 0 20.8094 0Z" fill="white"/>
</mask>
<g mask="url(#mask0_449_5275)">
<path d="M20.8094 0H2.19035C0.980587 0 -0.00012207 0.955126 -0.00012207 2.13333V13.8667C-0.00012207 15.0449 0.980587 16 2.19035 16H20.8094C22.0192 16 22.9999 15.0449 22.9999 13.8667V2.13333C22.9999 0.955126 22.0192 0 20.8094 0Z" fill="#22438B"/>
<path fill-rule="evenodd" clip-rule="evenodd" d="M3.2856 1.06641L1.06665 1.09414L1.09513 3.19974L19.6945 14.9629L21.9255 14.9235L21.8838 12.8307L3.2856 1.06641Z" fill="white"/>
<path fill-rule="evenodd" clip-rule="evenodd" d="M2.19033 1.06641L1.09509 2.13307L20.8094 14.9331L21.9046 13.8664L2.19033 1.06641Z" fill="#C7152A"/>
<path fill-rule="evenodd" clip-rule="evenodd" d="M19.7142 1.06641H21.9046V3.19974C21.9046 3.19974 9.0356 11.0888 3.30531 14.9629C3.23631 15.0099 1.11703 14.9661 1.11703 14.9661L0.947266 12.9384L19.7142 1.06641Z" fill="white"/>
<path fill-rule="evenodd" clip-rule="evenodd" d="M20.8565 1.03711L21.9046 2.13364L2.19033 14.9336L1.09509 13.867L20.8565 1.03711Z" fill="#C7152A"/>
<path fill-rule="evenodd" clip-rule="evenodd" d="M8.76176 1.06641H14.2379V5.33307H21.9046V10.6664H14.2379V14.9331H8.76176V10.6664H1.09509V5.33307H8.76176V1.06641Z" fill="white"/>
<path fill-rule="evenodd" clip-rule="evenodd" d="M9.857 1.06641H13.1427V6.39974H21.9046V9.59974H13.1427V14.9331H9.857V9.59974H1.09509V6.39974H9.857V1.06641Z" fill="#C7152A"/>
<path d="M20.8094 0.533203H2.19034C1.28302 0.533203 0.547485 1.24955 0.547485 2.1332V13.8665C0.547485 14.7502 1.28302 15.4665 2.19034 15.4665H20.8094C21.7167 15.4665 22.4522 14.7502 22.4522 13.8665V2.1332C22.4522 1.24955 21.7167 0.533203 20.8094 0.533203Z" stroke="black" stroke-opacity="0.1"/>
</g>
</g>
<defs>
<clipPath id="clip0_449_5275">
<rect width="23" height="16" fill="white"/>
</clipPath>
</defs>
</svg>
