<svg width="218" height="58" viewBox="0 0 218 58" fill="none" xmlns="http://www.w3.org/2000/svg">
<path d="M188.506 58.0016H28.9904C12.983 58.0016 0.000183105 45.0221 0.000183105 28.9999C0.000183105 12.981 12.983 -0.00180817 28.9904 -0.00180817H188.506C204.517 -0.00180817 217.5 12.981 217.5 28.9999C217.5 45.0221 204.517 58.0016 188.506 58.0016Z" fill="#FFD23F"/>
<path d="M28.9904 57.5016H188.506C204.241 57.5016 217 44.746 217 28.9999C217 13.2571 204.241 0.498192 188.506 0.498192H28.9904C13.2593 0.498192 0.500183 13.257 0.500183 28.9999C0.500183 44.746 13.2592 57.5016 28.9904 57.5016Z" stroke="black" stroke-opacity="0.38"/>
<path d="M30.4412 31.0498C33.3647 32.958 36.3334 33.6562 37.6329 33.6562C38.5381 33.6562 38.7459 33.2907 38.7459 32.9243C38.7459 32.5029 38.4765 32.323 38.083 32.2335C37.0259 31.9608 33.9775 31.6248 31.7391 29.6681C30.5891 28.6413 29.8103 27.2186 29.8103 25.105C29.8103 20.7292 33.1897 17.7375 38.718 17.7375C41.3729 17.7375 44.5239 18.4292 46.5102 19.456V26.6214C43.6746 25.1987 41.0139 24.6869 39.9034 24.6869C39.0261 24.6869 38.7829 25.0114 38.7829 25.3482C38.7829 25.8 39.1115 25.9831 39.477 26.1023C40.3847 26.3709 43.4002 26.7372 45.5343 28.4286C47.0203 29.6344 47.7497 31.173 47.7497 33.1371C47.7497 37.3305 44.358 40.2614 38.6301 40.2614C35.8799 40.2614 32.5901 39.5969 30.4412 38.4838V31.0498Z" fill="black"/>
<path d="M60.9444 31.5728L59.9767 27.1288H59.9192L58.954 31.5728H60.9444ZM55.9295 18.0708H64.5324L72.8741 39.9293H63.1581L62.3909 37.0616H57.3818L56.5308 39.9293H47.6009L55.9295 18.0708Z" fill="black"/>
<path d="M74.3773 18.0704H82.5621L88.9997 27.3979L89.0671 27.3683V18.0704H97.1558V39.9289H88.966L82.5358 30.6015L82.4759 30.6319V39.9289H74.3773V18.0704Z" fill="black"/>
<path d="M105.607 25.4974H99.509V18.0699H120.71V25.4974H114.609V39.9293H105.607V25.4974Z" fill="black"/>
<path d="M132.724 27.734C134.146 27.734 134.777 26.9799 134.777 26.0459C134.777 25.1054 134.113 24.3776 132.724 24.3776H132.066V27.734H132.724ZM123.058 18.0706H132.04C136.54 18.0706 142.667 19.1828 142.667 25.0117C142.667 27.3684 141.551 29.0672 139.927 30.2139L144.908 39.929H135.445L132.182 32.7447H132.066V39.929H123.058V18.0706Z" fill="black"/>
<path d="M158.495 31.5728L157.525 27.1288H157.457L156.494 31.5728H158.495ZM153.477 18.0708H162.088L170.425 39.9293H160.699L159.933 37.0616H154.934L154.082 39.9293H145.139L153.477 18.0708Z" fill="black"/>
<path d="M171.923 18.0704H180.941V32.1737H187.695V39.9289H171.923V18.0704Z" fill="black"/>
<path d="M191.668 21.7296H192.173C192.362 21.7296 192.519 21.7115 192.639 21.6852C192.762 21.6515 192.855 21.6064 192.931 21.5357C193.001 21.4725 193.046 21.3936 193.076 21.3008C193.102 21.2104 193.113 21.0954 193.113 20.9788C193.113 20.8597 193.102 20.7586 193.076 20.6691C193.057 20.5828 193.02 20.513 192.952 20.4531C192.893 20.389 192.799 20.3479 192.695 20.3257C192.587 20.2962 192.444 20.2773 192.269 20.2773H191.668V21.7296ZM191.668 22.5962V24.4338H190.448V19.3622H192.269C192.971 19.3622 193.494 19.4895 193.819 19.7433C194.155 19.9972 194.308 20.352 194.308 20.8227C194.308 21.162 194.226 21.4536 194.05 21.7074C193.882 21.9505 193.617 22.137 193.24 22.2602C193.323 22.3087 193.396 22.3645 193.456 22.4393C193.524 22.5067 193.572 22.6003 193.625 22.6931L194.64 24.4338H193.49C193.315 24.4338 193.203 24.373 193.132 24.2465L192.311 22.7605C192.281 22.7046 192.236 22.6668 192.191 22.6373C192.139 22.611 192.067 22.5962 191.978 22.5962H191.668ZM188.902 21.9086C188.902 22.4015 188.983 22.8541 189.159 23.2829C189.334 23.7125 189.578 24.0781 189.872 24.396C190.182 24.7089 190.556 24.9562 190.951 25.1385C191.366 25.3143 191.818 25.4039 192.288 25.4039C192.605 25.4039 192.923 25.3702 193.222 25.2807C193.505 25.2026 193.786 25.0868 194.047 24.9373C194.289 24.7804 194.517 24.6046 194.726 24.3886C194.939 24.1791 195.122 23.9442 195.272 23.6862C195.41 23.4217 195.529 23.1449 195.6 22.85C195.697 22.551 195.731 22.2413 195.731 21.9086C195.731 21.5842 195.697 21.2671 195.6 20.9681C195.529 20.6691 195.41 20.3816 195.272 20.1278C195.122 19.8633 194.939 19.6242 194.726 19.4148C194.517 19.202 194.289 19.0188 194.047 18.8619C193.786 18.7091 193.505 18.5974 193.222 18.5112C192.923 18.429 192.605 18.388 192.288 18.388C191.978 18.388 191.668 18.429 191.381 18.5112C191.093 18.5974 190.825 18.7091 190.563 18.8619C190.309 19.0188 190.081 19.202 189.876 19.4148C189.67 19.6242 189.499 19.8633 189.353 20.1278C189.196 20.3816 189.095 20.6691 189.013 20.9681C188.939 21.2671 188.902 21.5842 188.902 21.9086ZM188.129 21.9086C188.129 21.5242 188.18 21.1546 188.274 20.7964C188.386 20.4416 188.517 20.113 188.708 19.7992C188.875 19.4928 189.103 19.2168 189.353 18.9589C189.611 18.7091 189.895 18.4849 190.193 18.3058C190.503 18.1267 190.835 17.9879 191.19 17.8836C191.538 17.7908 191.907 17.7382 192.288 17.7382C192.683 17.7382 193.046 17.7908 193.396 17.8836C193.763 17.9879 194.099 18.1267 194.405 18.3058C194.719 18.4849 194.991 18.7091 195.238 18.9589C195.507 19.2168 195.724 19.4928 195.895 19.7992C196.082 20.113 196.212 20.4416 196.317 20.7964C196.425 21.1546 196.47 21.5242 196.47 21.9086C196.47 22.2898 196.425 22.6553 196.317 23.0143C196.212 23.3725 196.082 23.6977 195.895 24.0148C195.724 24.3171 195.507 24.6013 195.238 24.8478C194.991 25.1049 194.719 25.3258 194.405 25.509C194.099 25.684 193.763 25.8302 193.396 25.9263C193.046 26.0273 192.683 26.0725 192.288 26.0725C191.907 26.0725 191.538 26.0273 191.19 25.9263C190.835 25.8302 190.503 25.684 190.193 25.509C189.895 25.3258 189.611 25.1049 189.353 24.8478C189.103 24.6013 188.875 24.3171 188.708 24.0148C188.517 23.6977 188.386 23.3725 188.274 23.0143C188.18 22.6668 188.129 22.2939 188.129 21.9086Z" fill="black"/>
</svg>
