<svg xmlns="http://www.w3.org/2000/svg" width="18" height="12" viewBox="0 0 18 12">
                <g id="credit-card" className="cls-2">
                    <g id="credit-card-2" className="cls-3" data-name="credit-card">
                        <g id="Group_9" data-name="Group 9">
                            <g id="Group_8" data-name="Group 8">
                                <path id="Path_6"
                                      d="M16.125 85.333H1.875A1.878 1.878 0 0 0 0 87.208v8.25a1.878 1.878 0 0 0 1.875 1.875h14.25A1.878 1.878 0 0 0 18 95.458v-8.25a1.878 1.878 0 0 0-1.875-1.875zm1.125 10.125a1.126 1.126 0 0 1-1.125 1.125H1.875A1.126 1.126 0 0 1 .75 95.458v-8.25a1.126 1.126 0 0 1 1.125-1.125h14.25a1.126 1.126 0 0 1 1.125 1.125v8.25z"
                                      className="cls-4" data-name="Path 6" transform="translate(0 -85.333)"/>
                            </g>
                        </g>
                        <g id="Group_11" data-name="Group 11" transform="translate(0 2.25)">
                            <g id="Group_10" data-name="Group 10">
                                <path id="Path_7"
                                      d="M17.625 149.333H.375a.375.375 0 0 0-.375.375v2.25a.375.375 0 0 0 .375.375h17.25a.375.375 0 0 0 .375-.375v-2.25a.375.375 0 0 0-.375-.375zm-.375 2.25H.75v-1.5h16.5v1.5z"
                                      className="cls-4" data-name="Path 7" transform="translate(0 -149.333)"/>
                            </g>
                        </g>
                        <g id="Group_13" data-name="Group 13" transform="translate(2.25 7.5)">
                            <g id="Group_12" data-name="Group 12">
                                <path id="Path_8"
                                      d="M68.875 298.667h-4.5a.375.375 0 1 0 0 .75h4.5a.375.375 0 1 0 0-.75z"
                                      className="cls-4" data-name="Path 8" transform="translate(-64 -298.667)"/>
                            </g>
                        </g>
                        <g id="Group_15" data-name="Group 15" transform="translate(2.25 9)">
                            <g id="Group_14" data-name="Group 14">
                                <path id="Path_9"
                                      d="M68.875 341.333h-4.5a.375.375 0 1 0 0 .75h4.5a.375.375 0 1 0 0-.75z"
                                      className="cls-4" data-name="Path 9" transform="translate(-64 -341.333)"/>
                            </g>
                        </g>
                        <g id="Group_17" data-name="Group 17" transform="translate(12.75 6.75)">
                            <g id="Group_16" data-name="Group 16">
                                <path id="Path_10"
                                      d="M364.542 277.333h-.75a1.126 1.126 0 0 0-1.125 1.125v.75a1.126 1.126 0 0 0 1.125 1.125h.75a1.126 1.126 0 0 0 1.125-1.125v-.75a1.126 1.126 0 0 0-1.125-1.125zm.375 1.875a.375.375 0 0 1-.375.375h-.75a.375.375 0 0 1-.375-.375v-.75a.375.375 0 0 1 .375-.375h.75a.375.375 0 0 1 .375.375z"
                                      className="cls-4" data-name="Path 10" transform="translate(-362.667 -277.333)"/>
                            </g>
                        </g>
                    </g>
                </g>
            </svg>