<svg xmlns="http://www.w3.org/2000/svg" width="18" height="11.75" viewBox="0 0 18 11.75">
                <g id="delivery-truck" className="cls-2">
                    <path id="delivery-truck-2"
                          d="M17.992 94.979c-.07-.358-.691-3.511-.844-3.971a8.54 8.54 0 0 0-2.368-3.37A5.475 5.475 0 0 0 11.487 86H2.4a.855.855 0 0 0-.854.854v1.342H.915a.418.418 0 1 0 0 .836h.629v1H.418a.418.418 0 1 0 0 .836h1.126v4.2a.855.855 0 0 0 .854.854H3.44a2.153 2.153 0 0 0 4.258 0h3.833a2.153 2.153 0 0 0 4.258 0h1.356A.855.855 0 0 0 18 95.06a.421.421 0 0 0-.008-.081zm-1.685-3.842H12v-4.23a7.935 7.935 0 0 1 4.307 4.23zM5.569 96.91a1.317 1.317 0 1 1 1.317-1.317 1.319 1.319 0 0 1-1.317 1.317zm8.092 0a1.317 1.317 0 1 1 1.317-1.317 1.319 1.319 0 0 1-1.317 1.317zm3.464-1.832h-1.373a2.153 2.153 0 0 0-4.182 0H7.66a2.153 2.153 0 0 0-4.182 0H2.4a.018.018 0 0 1-.018-.018v-4.2H7.5a.418.418 0 1 0 0-.836H2.38v-1h2.357a.418.418 0 0 0 0-.836H2.38V86.85a.018.018 0 0 1 .018-.018h8.767v4.723a.418.418 0 0 0 .418.418h4.941c.178.813.423 2.115.631 3.079.004.02-.008.026-.03.026z"
                          className="cls-3" data-name="delivery-truck" transform="translate(0 -85.996)"/>
                </g>
            </svg>