<svg xmlns="http://www.w3.org/2000/svg" width="21" height="21" data-name="034-instagram"
                 viewBox="0 0 21 21">
                <path
                    d="M14.438 0H6.563A6.563 6.563 0 0 0 0 6.563v7.875A6.563 6.563 0 0 0 6.563 21h7.875A6.563 6.563 0 0 0 21 14.438V6.563A6.563 6.563 0 0 0 14.438 0zm4.594 14.438a4.6 4.6 0 0 1-4.594 4.594H6.563a4.6 4.6 0 0 1-4.594-4.594V6.563a4.6 4.6 0 0 1 4.594-4.594h7.875a4.6 4.6 0 0 1 4.594 4.594z"
                    data-name="Path 2"/>
                <path
                    d="M10.5 5.25a5.25 5.25 0 1 0 5.25 5.25 5.25 5.25 0 0 0-5.25-5.25zm0 8.531a3.281 3.281 0 1 1 3.281-3.281 3.286 3.286 0 0 1-3.281 3.281z"
                    data-name="Path 3"/>
                <circle cx=".7" cy=".7" r=".7" data-name="Ellipse 4" transform="translate(15.444 4.157)"/>
            </svg>