<svg xmlns="http://www.w3.org/2000/svg" viewBox="0 0 353.048 94.14373" height="94.14373" width="353.048"><g transform="matrix(1.3333333,0,0,-1.3333333,0,94.143733)"><g transform="translate(229.4822,-0.002)" id="g20"><path style="fill:#ffd23f;fill-opacity:1;fill-rule:nonzero;stroke:none" d="m 0,0 h -194.19 c -19.487,0 -35.292,15.801 -35.292,35.306 0,19.501 15.805,35.306 35.292,35.306 H 0 c 19.492,0 35.297,-15.805 35.297,-35.306 C 35.297,15.801 19.492,0 0,0"></path></g><g transform="translate(37.0584,32.8086)" id="g24"><path style="fill:#000000;fill-opacity:1;fill-rule:nonzero;stroke:none" d="m 0,0 c 3.559,-2.323 7.173,-3.173 8.755,-3.173 1.102,0 1.355,0.445 1.355,0.891 0,0.513 -0.328,0.732 -0.807,0.841 -1.287,0.332 -4.998,0.741 -7.723,3.123 -1.4,1.25 -2.348,2.982 -2.348,5.555 0,5.327 4.114,8.969 10.844,8.969 3.232,0 7.068,-0.842 9.486,-2.092 V 5.391 c -3.452,1.732 -6.691,2.355 -8.043,2.355 -1.068,0 -1.364,-0.395 -1.364,-0.805 0,-0.55 0.4,-0.773 0.845,-0.918 1.105,-0.327 4.776,-0.773 7.374,-2.832 1.809,-1.468 2.697,-3.341 2.697,-5.732 0,-5.105 -4.129,-8.673 -11.102,-8.673 -3.348,0 -7.353,0.809 -9.969,2.164 z"></path></g><g transform="translate(74.1922,32.1719)" id="g28"><path style="fill:#000000;fill-opacity:1;fill-rule:nonzero;stroke:none" d="m 0,0 -1.178,5.41 h -0.07 L -2.423,0 Z M -6.105,16.437 H 4.368 l 10.155,-26.61 H 2.695 l -0.934,3.491 h -6.098 l -1.036,-3.491 h -10.871 z"></path></g><g transform="translate(90.5452,48.6094)" id="g32"><path style="fill:#000000;fill-opacity:1;fill-rule:nonzero;stroke:none" d="m 0,0 h 9.964 l 7.837,-11.355 0.082,0.036 V 0 H 27.73 V -26.61 H 17.76 L 9.932,-15.255 9.859,-15.292 V -26.61 H 0 Z"></path></g><g transform="translate(128.5628,39.5679)" id="g36"><path style="fill:#000000;fill-opacity:1;fill-rule:nonzero;stroke:none" d="m 0,0 h -7.423 v 9.042 h 25.81 V 0 H 10.959 V -17.569 H 0 Z"></path></g><g transform="translate(161.5745,36.8452)" id="g40"><path style="fill:#000000;fill-opacity:1;fill-rule:nonzero;stroke:none" d="M 0,0 C 1.732,0 2.5,0.918 2.5,2.055 2.5,3.2 1.691,4.086 0,4.086 H -0.8 V 0 Z m -11.766,11.764 h 10.934 c 5.478,0 12.937,-1.354 12.937,-8.45 0,-2.869 -1.359,-4.937 -3.336,-6.333 l 6.064,-11.827 H 3.313 L -0.659,-6.1 H -0.8 v -8.746 h -10.966 z"></path></g><g transform="translate(192.9485,32.1719)" id="g44"><path style="fill:#000000;fill-opacity:1;fill-rule:nonzero;stroke:none" d="M 0,0 -1.182,5.41 H -1.264 L -2.437,0 Z M -6.109,16.437 H 4.373 l 10.15,-26.61 H 2.682 L 1.75,-6.682 h -6.086 l -1.037,-3.491 H -16.26 Z"></path></g><g transform="translate(209.2947,48.6094)" id="g48"><path style="fill:#000000;fill-opacity:1;fill-rule:nonzero;stroke:none" d="m 0,0 h 10.978 v -17.169 h 8.223 V -26.61 H 0 Z"></path></g><g transform="translate(233.3323,44.1548)" id="g52"><path style="fill:#000000;fill-opacity:1;fill-rule:nonzero;stroke:none" d="m 0,0 h 0.614 c 0.231,0 0.422,0.022 0.568,0.054 0.15,0.041 0.263,0.096 0.355,0.182 0.086,0.077 0.14,0.173 0.177,0.286 0.032,0.11 0.045,0.25 0.045,0.392 0,0.145 -0.013,0.268 -0.045,0.377 C 1.691,1.396 1.646,1.481 1.563,1.554 1.491,1.632 1.377,1.682 1.25,1.709 1.118,1.745 0.945,1.768 0.732,1.768 H 0 Z M 0,-1.055 V -3.292 H -1.486 V 2.882 H 0.732 C 1.586,2.882 2.223,2.727 2.618,2.418 3.027,2.109 3.214,1.677 3.214,1.104 3.214,0.691 3.114,0.336 2.9,0.027 2.695,-0.269 2.373,-0.496 1.914,-0.646 c 0.1,-0.059 0.19,-0.127 0.263,-0.218 0.082,-0.082 0.141,-0.196 0.205,-0.309 l 1.236,-2.119 h -1.4 c -0.213,0 -0.35,0.074 -0.436,0.228 l -1,1.809 c -0.036,0.068 -0.091,0.114 -0.146,0.15 -0.063,0.032 -0.15,0.05 -0.259,0.05 z m -3.368,0.837 c 0,-0.6 0.099,-1.151 0.313,-1.673 0.214,-0.523 0.51,-0.968 0.868,-1.355 0.378,-0.381 0.833,-0.682 1.314,-0.904 0.505,-0.214 1.055,-0.323 1.628,-0.323 0.386,0 0.772,0.041 1.136,0.15 0.345,0.095 0.687,0.236 1.005,0.418 0.295,0.191 0.572,0.405 0.827,0.668 0.259,0.255 0.482,0.541 0.664,0.855 0.168,0.322 0.313,0.659 0.4,1.018 0.118,0.364 0.159,0.741 0.159,1.146 0,0.395 -0.041,0.781 -0.159,1.145 C 4.7,1.291 4.555,1.641 4.387,1.95 4.205,2.272 3.982,2.563 3.723,2.818 3.468,3.077 3.191,3.3 2.896,3.491 2.578,3.677 2.236,3.813 1.891,3.918 1.527,4.018 1.141,4.068 0.755,4.068 0.377,4.068 0,4.018 -0.35,3.918 -0.7,3.813 -1.027,3.677 -1.346,3.491 -1.655,3.3 -1.932,3.077 -2.182,2.818 -2.432,2.563 -2.641,2.272 -2.818,1.95 -3.009,1.641 -3.132,1.291 -3.232,0.927 -3.323,0.563 -3.368,0.177 -3.368,-0.218 m -0.941,0 c 0,0.468 0.063,0.918 0.177,1.354 0.136,0.432 0.296,0.832 0.528,1.214 0.204,0.373 0.481,0.709 0.786,1.023 0.314,0.304 0.659,0.577 1.022,0.795 0.378,0.218 0.782,0.387 1.214,0.514 0.423,0.113 0.873,0.177 1.337,0.177 0.481,0 0.922,-0.064 1.349,-0.177 C 2.55,4.555 2.959,4.386 3.332,4.168 3.714,3.95 4.045,3.677 4.346,3.373 4.673,3.059 4.937,2.723 5.146,2.35 5.373,1.968 5.532,1.568 5.659,1.136 5.791,0.7 5.846,0.25 5.846,-0.218 5.846,-0.682 5.791,-1.127 5.659,-1.564 5.532,-2 5.373,-2.396 5.146,-2.782 4.937,-3.15 4.673,-3.496 4.346,-3.796 4.045,-4.109 3.714,-4.378 3.332,-4.601 2.959,-4.814 2.55,-4.992 2.104,-5.109 1.677,-5.232 1.236,-5.287 0.755,-5.287 c -0.464,0 -0.914,0.055 -1.337,0.178 -0.432,0.117 -0.836,0.295 -1.214,0.508 -0.363,0.223 -0.708,0.492 -1.022,0.805 -0.305,0.3 -0.582,0.646 -0.786,1.014 -0.232,0.386 -0.392,0.782 -0.528,1.218 -0.114,0.423 -0.177,0.877 -0.177,1.346"></path></g></g></svg>