<svg width="136" height="20" viewBox="0 0 136 20" fill="none" xmlns="http://www.w3.org/2000/svg">
<g clip-path="url(#clip0_376_2255)">
<path d="M18.8669 19.2633H0V0.453125H3.79603V15.5806H13.881C14.4476 16.4871 15.1275 17.2237 15.9773 17.8469C16.3173 18.1302 16.7139 18.3568 17.1105 18.5834C17.1105 18.5834 17.1671 18.5834 17.1671 18.6401C17.6771 18.8667 18.2436 19.0934 18.8669 19.2633Z" fill="white"/>
<path d="M45.7223 19.4333H41.9263V0.396484H55.1274C56.6571 0.396484 58.0736 0.963057 59.1501 2.03954C60.2266 3.11603 60.7931 4.53246 60.7931 6.06221C60.7931 7.59195 60.2266 9.00838 59.1501 10.0849C58.0736 11.1614 56.6571 11.7279 55.1274 11.7279H46.8554L50.3682 7.9319H55.0707C55.5807 7.9319 56.0906 7.76192 56.4305 7.36532C56.7705 7.02538 56.9971 6.51546 56.9971 6.00555C56.9971 5.49564 56.8271 4.98572 56.4305 4.64578C56.0906 4.30583 55.5807 4.0792 55.0707 4.0792H45.609V19.4333H45.7223Z" fill="white"/>
<path d="M71.7279 4.19252V19.2633H67.9319V4.19252H61.5296C61.303 3.45597 60.9631 2.77609 60.5098 2.15286C59.9432 1.41631 59.15 0.793085 58.3002 0.396484H81.0197V4.19252H71.7279Z" fill="white"/>
<path d="M82.0962 7.93188V11.7279H90.5948V7.93188H82.0962ZM82.1529 4.1925C85.9489 4.1925 89.7449 4.24916 93.5976 4.24916C94.1642 3.11601 95.014 2.2095 96.0339 1.47295C96.6571 1.0197 97.3936 0.679754 98.1302 0.453125H82.1529" fill="white"/>
<path d="M82.0397 19.2633H98.017C97.2805 19.0367 96.5439 18.6967 95.9207 18.2435C94.9009 17.5069 94.051 16.6004 93.4844 15.4673C89.6884 15.4673 85.8924 15.5239 82.0397 15.5239" fill="white"/>
<path d="M102.323 4.19232H115.071V0.396285H102.323C99.83 0.339627 97.3937 1.35946 95.6373 3.17249C93.8243 4.92886 92.8611 7.36512 92.8611 9.85804C92.8045 12.351 93.8243 14.7872 95.6373 16.5436C97.3937 18.3566 99.83 19.3198 102.323 19.3198H115.071V15.5238H102.323C100.793 15.5238 99.3767 14.9572 98.3002 13.8807C97.2237 12.8042 96.6572 11.3878 96.6572 9.85804C96.6572 8.3283 97.2237 6.91187 98.3002 5.83538C99.3767 4.75889 100.793 4.19232 102.323 4.19232Z" fill="white"/>
<path d="M119.943 11.7279V19.2633H116.147V0.396484H119.943V7.9319H131.275V0.396484H135.071V19.2633H131.275V11.7279H119.943Z" fill="white"/>
<path d="M18.8669 19.2633H0V0.453125H3.79603V15.5806H13.881C14.4476 16.4871 15.1275 17.2237 15.9773 17.8469C16.3173 18.1302 16.7139 18.3568 17.1105 18.5834C17.1105 18.5834 17.1671 18.5834 17.1671 18.6401C17.6771 18.8667 18.2436 19.0934 18.8669 19.2633Z" fill="white"/>
<path d="M45.7223 19.4333H41.9263V0.396484H55.1274C56.6571 0.396484 58.0736 0.963057 59.1501 2.03954C60.2266 3.11603 60.7931 4.53246 60.7931 6.06221C60.7931 7.59195 60.2266 9.00838 59.1501 10.0849C58.0736 11.1614 56.6571 11.7279 55.1274 11.7279H46.8554L50.3682 7.9319H55.0707C55.5807 7.9319 56.0906 7.76192 56.4305 7.36532C56.7705 7.02538 56.9971 6.51546 56.9971 6.00555C56.9971 5.49564 56.8271 4.98572 56.4305 4.64578C56.0906 4.30583 55.5807 4.0792 55.0707 4.0792H45.609V19.4333H45.7223Z" fill="white"/>
<path d="M71.7279 4.19252V19.2633H67.9319V4.19252H61.5296C61.303 3.45597 60.9631 2.77609 60.5098 2.15286C59.9432 1.41631 59.15 0.793085 58.3002 0.396484H81.0197V4.19252H71.7279Z" fill="white"/>
<path d="M82.0962 7.93188V11.7279H90.5948V7.93188H82.0962ZM82.1529 4.1925C85.9489 4.1925 89.7449 4.24916 93.5976 4.24916C94.1642 3.11601 95.014 2.2095 96.0339 1.47295C96.6571 1.0197 97.3936 0.679754 98.1302 0.453125H82.1529" fill="white"/>
<path d="M82.0397 19.2633H98.017C97.2805 19.0367 96.5439 18.6967 95.9207 18.2435C94.9009 17.5069 94.051 16.6004 93.4844 15.4673C89.6884 15.4673 85.8924 15.5239 82.0397 15.5239" fill="white"/>
<path d="M102.323 4.19232H115.071V0.396285H102.323C99.83 0.339627 97.3937 1.35946 95.6373 3.17249C93.8243 4.92886 92.8611 7.36512 92.8611 9.85804C92.8045 12.351 93.8243 14.7872 95.6373 16.5436C97.3937 18.3566 99.83 19.3198 102.323 19.3198H115.071V15.5238H102.323C100.793 15.5238 99.3767 14.9572 98.3002 13.8807C97.2237 12.8042 96.6572 11.3878 96.6572 9.85804C96.6572 8.3283 97.2237 6.91187 98.3002 5.83538C99.3767 4.75889 100.793 4.19232 102.323 4.19232Z" fill="white"/>
<path d="M119.943 11.7279V19.2633H116.147V0.396484H119.943V7.9319H131.275V0.396484H135.071V19.2633H131.275V11.7279H119.943Z" fill="white"/>
<path opacity="0.98" d="M26.0623 1.47287C23.3994 3.17259 21.643 6.11876 21.4731 9.46154H13.0311C13.3711 4.58902 17.4504 0.736328 22.3796 0.736328C23.7393 0.736328 24.9291 1.01961 26.0623 1.47287Z" fill="white"/>
<path opacity="0.98" d="M41.3031 10.3115C41.1331 15.4107 36.9405 19.4334 31.8413 19.4334C30.3116 19.4334 28.8952 19.0934 27.592 18.4135C30.3116 16.7138 32.1246 13.711 32.2379 10.2549H41.3031V10.3115Z" fill="white"/>
<path d="M41.0764 9.85827H31.8413V9.97159C31.8413 15.2407 27.5354 19.5467 22.2662 19.5467C16.9971 19.5467 12.6912 15.2974 12.6912 9.97159V9.85827H21.9263C21.9263 4.58915 26.2322 0.283203 31.5014 0.283203C36.7705 0.283203 41.0764 4.58915 41.0764 9.85827Z" fill="url(#paint0_linear_376_2255)"/>
</g>
<defs>
<linearGradient id="paint0_linear_376_2255" x1="26.8838" y1="20.5382" x2="26.8838" y2="-0.260707" gradientUnits="userSpaceOnUse">
<stop stop-color="#000405"/>
<stop offset="0.12" stop-color="#000F15"/>
<stop offset="0.2" stop-color="#00222F"/>
<stop offset="0.28" stop-color="#003C53"/>
<stop offset="0.36" stop-color="#005E81"/>
<stop offset="0.45" stop-color="#0086B9"/>
<stop offset="0.52" stop-color="#00ADEE"/>
<stop offset="0.57" stop-color="#00A3E1"/>
<stop offset="0.65" stop-color="#0089BD"/>
<stop offset="0.77" stop-color="#005F83"/>
<stop offset="0.91" stop-color="#002635"/>
<stop offset="1"/>
</linearGradient>
<clipPath id="clip0_376_2255">
<rect width="135.071" height="20" fill="white"/>
</clipPath>
</defs>
</svg>
