<svg width="32" height="22" viewBox="0 0 32 22" fill="none" xmlns="http://www.w3.org/2000/svg">
<path d="M19.1455 16.6279H12.7815V5.19164H19.1455V16.6279Z" fill="#FF5F00"/>
<path d="M13.1856 10.9095C13.1846 12.0109 13.4342 13.0981 13.9155 14.0887C14.3968 15.0794 15.0971 15.9476 15.9635 16.6276C14.8906 17.471 13.602 17.9954 12.2451 18.1411C10.8882 18.2867 9.51768 18.0477 8.2902 17.4512C7.06273 16.8548 6.02783 15.925 5.30379 14.7682C4.57976 13.6114 4.1958 12.2742 4.1958 10.9095C4.1958 9.54476 4.57976 8.20758 5.30379 7.05077C6.02783 5.89396 7.06273 4.96419 8.2902 4.36774C9.51768 3.77129 10.8882 3.53223 12.2451 3.67787C13.602 3.82351 14.8906 4.34798 15.9635 5.19133C15.0971 5.87133 14.3968 6.73953 13.9155 7.73021C13.4342 8.72089 13.1846 9.80808 13.1856 10.9095Z" fill="#EB001B"/>
<path d="M27.7309 10.9095C27.7309 9.54478 27.347 8.20761 26.623 7.0508C25.899 5.89399 24.8642 4.96422 23.6367 4.36776C22.4093 3.77131 21.0388 3.53223 19.6819 3.67787C18.325 3.82351 17.0364 4.34798 15.9635 5.19133C16.8292 5.87202 17.529 6.74036 18.0102 7.73088C18.4914 8.7214 18.7414 9.80825 18.7414 10.9095C18.7414 12.0107 18.4914 13.0975 18.0102 14.0881C17.529 15.0786 16.8292 15.9469 15.9635 16.6276C17.0364 17.471 18.325 17.9954 19.6819 18.1411C21.0388 18.2867 22.4093 18.0476 23.6367 17.4512C24.8642 16.8547 25.899 15.925 26.623 14.7682C27.347 13.6113 27.7309 12.2742 27.7309 10.9095Z" fill="#F79E1B"/>
<path d="M27.0369 6.40276V6.63689H27.1313V6.6846H26.8909V6.63689H26.9853V6.40276H27.0369ZM27.5037 6.40276V6.68506H27.43L27.3452 6.49089L27.2604 6.68506H27.1867V6.40276H27.2387V6.6157L27.3182 6.43211H27.3722L27.4517 6.61617V6.40276H27.5037Z" fill="#F79E1B"/>
</svg>
