<svg xmlns="http://www.w3.org/2000/svg" width="12.487" height="14.658" viewBox="0 0 12.487 14.658">
                <g transform="translate(-7.373 -51.802)">
                    <g transform="translate(7.373 51.802)">
                        <g transform="translate(.055 1.14)">
                            <g>
                                <path
                                    d="M155.93 144.03a.814.814 0 0 0-1.152 0l-10.748 10.749a.814.814 0 1 0 1.152 1.152l10.749-10.749a.814.814 0 0 0-.001-1.152z"
                                    transform="translate(-143.791 -143.791)"/>
                            </g>
                        </g>
                        <g>
                            <g>
                                <path
                                    d="M145.788 123.116a2.986 2.986 0 1 0 2.986 2.986 2.989 2.989 0 0 0-2.986-2.986zm0 4.343a1.357 1.357 0 1 1 1.357-1.357 1.359 1.359 0 0 1-1.357 1.357z"
                                    transform="translate(-142.802 -123.116)"/>
                            </g>
                        </g>
                        <g transform="translate(6.515 8.686)">
                            <g>
                                <path
                                    d="M263.908 280.61a2.986 2.986 0 1 0 2.986 2.986 2.989 2.989 0 0 0-2.986-2.986zm0 4.343a1.357 1.357 0 1 1 1.357-1.357 1.359 1.359 0 0 1-1.357 1.357z"
                                    transform="translate(-260.922 -280.61)"/>
                            </g>
                        </g>
                    </g>
                </g>
            </svg>