<svg width="61" height="60" viewBox="0 0 61 60" fill="none" xmlns="http://www.w3.org/2000/svg">
<path d="M55.5 26.875H5.5C4.475 26.875 3.625 26.025 3.625 25C3.625 23.975 4.475 23.125 5.5 23.125H55.5C56.525 23.125 57.375 23.975 57.375 25C57.375 26.025 56.525 26.875 55.5 26.875Z" fill="#FD8521"/>
<path d="M29.3756 53.1249H16.6006C6.65062 53.1249 3.60059 50.1249 3.60059 40.2749V19.7249C3.60059 11.8499 5.27556 7.47491 14.2006 6.94991C14.9506 6.92491 15.7506 6.8999 16.6006 6.8999H44.3756C54.3256 6.8999 57.3756 9.8999 57.3756 19.7499V30.7749C57.3756 31.7999 56.5256 32.6499 55.5006 32.6499C54.4756 32.6499 53.6256 31.7999 53.6256 30.7749V19.7499C53.6256 12.0249 52.2506 10.6499 44.3756 10.6499H16.6006C15.8006 10.6499 15.0756 10.6749 14.3756 10.6999C8.95058 11.0249 7.35059 12.2499 7.35059 19.7499V40.2999C7.35059 48.0249 8.72562 49.3999 16.6006 49.3999H29.3756C30.4006 49.3999 31.2506 50.2499 31.2506 51.2749C31.2506 52.2999 30.4256 53.1249 29.3756 53.1249Z" fill="#FD8521"/>
<path d="M25.5 41.875H15.5C14.475 41.875 13.625 41.025 13.625 40C13.625 38.975 14.475 38.125 15.5 38.125H25.5C26.525 38.125 27.375 38.975 27.375 40C27.375 41.025 26.525 41.875 25.5 41.875Z" fill="#FD8521"/>
<path d="M45.5 56.875C41.35 56.875 37.45 54.675 35.35 51.1C34.225 49.3 33.625 47.175 33.625 45C33.625 38.45 38.95 33.125 45.5 33.125C52.05 33.125 57.375 38.45 57.375 45C57.375 47.175 56.775 49.3 55.65 51.125C53.55 54.675 49.65 56.875 45.5 56.875ZM45.5 36.875C41.025 36.875 37.375 40.525 37.375 45C37.375 46.475 37.7749 47.925 38.5499 49.175C39.9999 51.625 42.675 53.125 45.5 53.125C48.325 53.125 51.0001 51.625 52.4501 49.2C53.2251 47.925 53.625 46.5 53.625 45C53.625 40.525 49.975 36.875 45.5 36.875Z" fill="#FD8521"/>
<path d="M44.0748 49.3499C43.5998 49.3499 43.1248 49.1749 42.7498 48.7999L40.2747 46.3249C39.5497 45.5999 39.5497 44.3999 40.2747 43.6749C40.9997 42.9499 42.1997 42.9499 42.9247 43.6749L44.1248 44.8749L48.1247 41.1749C48.8747 40.4749 50.0747 40.5249 50.7747 41.2749C51.4747 42.0249 51.4248 43.2249 50.6748 43.9249L45.3498 48.8499C44.9748 49.1749 44.5248 49.3499 44.0748 49.3499Z" fill="#FD8521"/>
</svg>
