<svg width="21" height="24" viewBox="0 0 21 24" fill="none" xmlns="http://www.w3.org/2000/svg">
<path d="M16.8 0.597656C19.1208 0.597656 21.0022 2.47901 21.0022 4.79978C21.0022 7.12054 19.1208 9.0019 16.8 9.0019C15.564 9.0019 14.4527 8.4683 13.6838 7.61891L8.21346 10.7442C8.33743 11.1407 8.40425 11.5624 8.40425 11.9998C8.40425 12.4371 8.33743 12.8589 8.21346 13.2554L13.6828 16.3819C14.4516 15.5318 15.5634 14.9977 16.8 14.9977C19.1208 14.9977 21.0022 16.879 21.0022 19.1998C21.0022 21.5205 19.1208 23.4019 16.8 23.4019C14.4792 23.4019 12.5978 21.5205 12.5978 19.1998C12.5978 18.7624 12.6647 18.3407 12.7886 17.9443L7.31941 14.8177C6.55048 15.6677 5.43868 16.2019 4.20212 16.2019C1.88136 16.2019 0 14.3205 0 11.9998C0 9.67901 1.88136 7.79765 4.20212 7.79765C5.43808 7.79765 6.54941 8.33126 7.31831 9.18064L12.7886 6.05534C12.6647 5.65886 12.5978 5.23712 12.5978 4.79978C12.5978 2.47901 14.4792 0.597656 16.8 0.597656ZM16.8 16.7977C15.4734 16.7977 14.3978 17.8731 14.3978 19.1998C14.3978 20.5264 15.4734 21.6019 16.8 21.6019C18.1266 21.6019 19.2022 20.5264 19.2022 19.1998C19.2022 17.8731 18.1266 16.7977 16.8 16.7977ZM4.20212 9.59765C2.87546 9.59765 1.8 10.6731 1.8 11.9998C1.8 13.3264 2.87546 14.4019 4.20212 14.4019C5.52878 14.4019 6.60425 13.3264 6.60425 11.9998C6.60425 10.6731 5.52878 9.59765 4.20212 9.59765ZM16.8 2.39765C15.4734 2.39765 14.3978 3.47312 14.3978 4.79978C14.3978 6.12644 15.4734 7.2019 16.8 7.2019C18.1266 7.2019 19.2022 6.12644 19.2022 4.79978C19.2022 3.47312 18.1266 2.39765 16.8 2.39765Z" fill="#323232"/>
</svg>
