<svg xmlns="http://www.w3.org/2000/svg" width="22.77" height="14.863" viewBox="0 0 22.77 14.863">
                <path
                    d="M22.76 97.36c-.089-.453-.874-4.441-1.067-5.023a10.8 10.8 0 0 0-3-4.263A6.926 6.926 0 0 0 14.531 86H3.034a1.082 1.082 0 0 0-1.081 1.081v1.7h-.8a.529.529 0 1 0 0 1.057h.8v1.261H.529a.529.529 0 1 0 0 1.057h1.424v5.311a1.082 1.082 0 0 0 1.081 1.081h1.318a2.724 2.724 0 0 0 5.387 0h4.849a2.724 2.724 0 0 0 5.387 0h1.715a1.082 1.082 0 0 0 1.081-1.081.533.533 0 0 0-.011-.107zm-2.132-4.86h-5.447v-5.352c1.93.518 4.605 3.086 5.447 5.352zM7.045 99.8a1.667 1.667 0 1 1 1.667-1.667A1.668 1.668 0 0 1 7.045 99.8zm10.236 0a1.667 1.667 0 1 1 1.667-1.667 1.669 1.669 0 0 1-1.667 1.667zm4.382-2.317h-1.738a2.723 2.723 0 0 0-5.29 0H9.69a2.723 2.723 0 0 0-5.29 0H3.034a.023.023 0 0 1-.023-.023v-5.31h6.478a.529.529 0 1 0 0-1.057H3.01v-1.261h2.982a.529.529 0 0 0 0-1.057H3.01v-1.7a.023.023 0 0 1 .023-.023h11.09v5.975a.529.529 0 0 0 .529.529H20.9c.225 1.028.535 2.675.8 3.9.005.021-.01.029-.037.029z"
                    className="cls-1" data-name="delivery-truck" transform="translate(0 -85.996)"/>
            </svg>