<svg width="100" height="100" viewBox="0 0 100 100" fill="none" xmlns="http://www.w3.org/2000/svg">
<g clip-path="url(#clip0_133_3820)">
<path d="M50.0003 99.9996C42.7547 99.9944 35.5971 98.4073 29.0255 95.3487C22.4538 92.29 16.6258 87.8331 11.9467 82.288C7.2677 76.743 3.84997 70.2428 1.93125 63.2397C0.0125365 56.2365 -0.361102 48.8985 0.836315 41.7359C2.03373 34.5734 4.77346 27.7583 8.86496 21.7645C12.9565 15.7708 18.3015 10.7424 24.5284 7.02901C30.7552 3.31562 37.7144 1.00638 44.9218 0.261932C52.1293 -0.482521 59.4121 0.355681 66.2636 2.71822C66.8055 2.90545 67.3053 3.19784 67.7345 3.57868C68.1637 3.95953 68.5139 4.42137 68.765 4.93785C69.0161 5.45433 69.1633 6.01535 69.1981 6.58884C69.2329 7.16232 69.1547 7.73707 68.9679 8.28026C68.7811 8.82344 68.4894 9.32442 68.1094 9.75461C67.7294 10.1848 67.2687 10.5358 66.7534 10.7875C66.2381 11.0392 65.6784 11.1867 65.1062 11.2216C64.534 11.2564 63.9606 11.1781 63.4187 10.9908C59.1013 9.5015 54.5663 8.74404 50.0003 8.74959C39.0071 8.74959 28.6723 13.0405 20.8992 20.8316C13.1261 28.6227 8.84512 38.9763 8.84512 50.0001C8.84512 61.0238 13.1261 71.3764 20.8992 79.1675C28.6723 86.9586 39.0021 91.2495 50.0003 91.2495C60.9986 91.2495 71.3283 86.9586 79.1014 79.1675C86.8746 71.3764 91.1545 61.0228 91.1545 50.0001C91.1599 45.5037 90.4308 41.0369 88.9963 36.7767C88.6254 35.6775 88.7053 34.4757 89.2184 33.4355C89.7315 32.3954 90.6359 31.6022 91.7325 31.2303C92.8291 30.8585 94.0282 30.9386 95.0659 31.4529C96.1037 31.9672 96.895 32.8737 97.266 33.9728C99.8095 41.4967 100.527 49.5198 99.3598 57.3772C98.1924 65.2346 95.1733 72.6999 90.5528 79.1544C85.9323 85.6088 79.8436 90.8665 72.7912 94.4917C65.7388 98.1168 57.926 100.005 50.0003 99.9996Z" fill="#55F965"/>
<path d="M28.593 47.4841C32.164 50.9651 39.6762 58.669 45.4994 67.2092C45.7691 67.6035 46.1326 67.924 46.5572 68.1418C46.9818 68.3595 47.4538 68.4675 47.9306 68.456C48.4073 68.4446 48.8737 68.3139 49.2873 68.076C49.701 67.8381 50.0488 67.5004 50.2992 67.0937C56.79 56.5626 75.3914 27.5999 90.6383 15.7237C91.3758 15.1532 91.8616 14.3164 91.9922 13.3918C92.1227 12.4673 91.8877 11.5282 91.3371 10.7749L91.325 10.7577C91.0414 10.3717 90.6837 10.0465 90.2728 9.80123C89.862 9.55594 89.4063 9.39552 88.9327 9.3294C88.459 9.26328 87.977 9.2928 87.5149 9.41623C87.0528 9.53966 86.62 9.75451 86.242 10.0481C78.832 15.7967 58.9492 31.688 45.7968 46.583L31.3074 42.6955C30.8191 42.5645 30.3048 42.5665 29.8175 42.7012C29.3302 42.8359 28.8876 43.0985 28.5353 43.4619C28.0118 44.0034 27.7239 44.7309 27.7347 45.4849C27.7455 46.2389 28.0541 46.9579 28.593 47.4841Z" fill="#55F965"/>
</g>
<defs>
<clipPath id="clip0_133_3820">
<rect width="99.7691" height="100" fill="white" transform="translate(0.115234)"/>
</clipPath>
</defs>
</svg>
