<svg xmlns="http://www.w3.org/2000/svg" id="user" width="20.732" height="20.732"
                 viewBox="0 0 20.732 20.732">
                <g id="Group_440" data-name="Group 440">
                    <path id="Path_130"
                          d="M13.994 12.785a6.82 6.82 0 0 0 3.283-5.874 6.911 6.911 0 1 0-13.822 0 6.82 6.82 0 0 0 3.283 5.874A10.683 10.683 0 0 0 0 20.732h1.728a8.854 8.854 0 0 1 17.277 0h1.728a10.4 10.4 0 0 0-6.739-7.947zM5.183 6.911a5.183 5.183 0 1 1 5.183 5.183 5.2 5.2 0 0 1-5.183-5.183z"
                          className="cls-1" data-name="Path 130"/>
                </g>
            </svg>