<svg width="25" height="24" viewBox="0 0 25 24" fill="none" xmlns="http://www.w3.org/2000/svg">
<path d="M15.2556 22.75H10.7556V15.5H9.80554C9.22554 15.5 8.75555 15.03 8.75555 14.45V12.55C8.75555 11.97 9.22554 11.5 9.80554 11.5H10.7556V9C10.7556 6.93 12.4356 5.25 14.5056 5.25H17.2056C17.7856 5.25 18.2556 5.71999 18.2556 6.29999V8.70001C18.2556 9.28001 17.7856 9.75 17.2056 9.75H15.2556V11.5H17.1356C17.4556 11.5 17.7456 11.64 17.9456 11.88C18.1456 12.12 18.2256 12.44 18.1656 12.75L17.7856 14.65C17.6856 15.14 17.2556 15.49 16.7556 15.49H15.2556V22.75ZM12.2556 21.25H13.7556V14H16.3956L16.5956 13H13.7656V9.29999C13.7656 8.71999 14.2356 8.25 14.8156 8.25H16.7656V6.75H14.5056C13.2656 6.75 12.2556 7.76 12.2556 9V13H10.2556V14H12.2556V21.25Z" fill="#FFD23F"/>
<path d="M15.5056 22.75H9.50555C4.07555 22.75 1.75555 20.43 1.75555 15V9C1.75555 3.57 4.07555 1.25 9.50555 1.25H15.5056C20.9356 1.25 23.2556 3.57 23.2556 9V15C23.2556 20.43 20.9356 22.75 15.5056 22.75ZM9.50555 2.75C4.89555 2.75 3.25555 4.39 3.25555 9V15C3.25555 19.61 4.89555 21.25 9.50555 21.25H15.5056C20.1156 21.25 21.7556 19.61 21.7556 15V9C21.7556 4.39 20.1156 2.75 15.5056 2.75H9.50555Z" fill="#FFD23F"/>
</svg>
