<svg width="25" height="24" viewBox="0 0 25 24" fill="none" xmlns="http://www.w3.org/2000/svg">
<path d="M15.5056 22.75H9.50555C4.07555 22.75 1.75555 20.43 1.75555 15V9C1.75555 3.57 4.07555 1.25 9.50555 1.25H15.5056C20.9356 1.25 23.2556 3.57 23.2556 9V15C23.2556 20.43 20.9356 22.75 15.5056 22.75ZM9.50555 2.75C4.89555 2.75 3.25555 4.39 3.25555 9V15C3.25555 19.61 4.89555 21.25 9.50555 21.25H15.5056C20.1156 21.25 21.7556 19.61 21.7556 15V9C21.7556 4.39 20.1156 2.75 15.5056 2.75H9.50555Z" fill="#FFD23F"/>
<path d="M12.5056 16.25C10.1656 16.25 8.25555 14.34 8.25555 12C8.25555 9.66 10.1656 7.75 12.5056 7.75C14.8456 7.75 16.7556 9.66 16.7556 12C16.7556 14.34 14.8456 16.25 12.5056 16.25ZM12.5056 9.25C10.9856 9.25 9.75555 10.48 9.75555 12C9.75555 13.52 10.9856 14.75 12.5056 14.75C14.0256 14.75 15.2556 13.52 15.2556 12C15.2556 10.48 14.0256 9.25 12.5056 9.25Z" fill="#FFD23F"/>
<path d="M17.5056 7.4999C17.3756 7.4999 17.2456 7.4699 17.1256 7.4199C17.0056 7.3699 16.8956 7.2999 16.7956 7.2099C16.7056 7.1099 16.6256 6.9999 16.5756 6.8799C16.5256 6.7599 16.5056 6.6299 16.5056 6.4999C16.5056 6.3699 16.5256 6.2399 16.5756 6.1199C16.6356 5.9899 16.7056 5.8899 16.7956 5.7899C16.8456 5.7499 16.8956 5.6999 16.9456 5.6699C17.0056 5.6299 17.0656 5.5999 17.1256 5.5799C17.1856 5.5499 17.2456 5.5299 17.3156 5.5199C17.6356 5.4499 17.9756 5.5599 18.2156 5.7899C18.3056 5.8899 18.3756 5.9899 18.4256 6.1199C18.4756 6.2399 18.5056 6.3699 18.5056 6.4999C18.5056 6.6299 18.4756 6.7599 18.4256 6.8799C18.3756 6.9999 18.3056 7.1099 18.2156 7.2099C18.1156 7.2999 18.0056 7.3699 17.8856 7.4199C17.7656 7.4699 17.6356 7.4999 17.5056 7.4999Z" fill="#FFD23F"/>
</svg>
