<svg width="25" height="24" viewBox="0 0 25 24" fill="none" xmlns="http://www.w3.org/2000/svg">
<path d="M2.50557 22.7502C2.30557 22.7502 2.11554 22.6702 1.97554 22.5302C1.78554 22.3402 1.70559 22.0602 1.77559 21.8002L3.0356 17.0902C2.1956 15.5302 1.75557 13.7702 1.75557 11.9902C1.75557 6.06023 6.57557 1.24023 12.5056 1.24023C18.4356 1.24023 23.2556 6.06023 23.2556 11.9902C23.2556 17.9202 18.4356 22.7402 12.5056 22.7402C10.6956 22.7402 8.9256 22.2902 7.3456 21.4302L2.70558 22.7202C2.63558 22.7402 2.57557 22.7502 2.50557 22.7502ZM7.44557 19.8802C7.57557 19.8802 7.70558 19.9203 7.82558 19.9803C9.23558 20.8103 10.8556 21.2502 12.5056 21.2502C17.6056 21.2502 21.7556 17.1002 21.7556 12.0002C21.7556 6.90024 17.6056 2.75024 12.5056 2.75024C7.40557 2.75024 3.25557 6.90024 3.25557 12.0002C3.25557 13.6302 3.68556 15.2202 4.49556 16.6202C4.59556 16.7902 4.62558 17.0002 4.57558 17.1902L3.57558 20.9302L7.25557 19.9102C7.31557 19.8902 7.38557 19.8802 7.44557 19.8802Z" fill="#FFD23F"/>
<path d="M15.2455 17.7598C14.6255 17.7598 13.9856 17.6198 13.3156 17.3298C12.6856 17.0598 12.0556 16.6998 11.4456 16.2498C10.8456 15.8098 10.2556 15.3098 9.71558 14.7698C9.17558 14.2198 8.67553 13.6398 8.23553 13.0398C7.78553 12.4098 7.42553 11.7898 7.16553 11.1798C6.88553 10.5198 6.74554 9.8698 6.74554 9.2498C6.74554 8.8098 6.82552 8.3898 6.97552 7.9998C7.13552 7.5898 7.39553 7.21979 7.73553 6.89979C8.37553 6.26979 9.29557 6.03981 10.0256 6.38981C10.2756 6.49981 10.4856 6.67981 10.6456 6.91981L11.8055 8.54979C11.9255 8.70979 12.0156 8.87979 12.0856 9.04979C12.1656 9.24979 12.2156 9.44981 12.2156 9.63981C12.2156 9.89981 12.1456 10.1598 12.0056 10.3898C11.9156 10.5398 11.7855 10.7198 11.6155 10.8898L11.4855 11.0298C11.5455 11.1098 11.6155 11.2098 11.7255 11.3298C11.9355 11.5698 12.1655 11.8298 12.4155 12.0798C12.6655 12.3198 12.9155 12.5598 13.1655 12.7698C13.2855 12.8698 13.3856 12.9498 13.4656 12.9998L13.6055 12.8598C13.7855 12.6798 13.9656 12.5398 14.1456 12.4498C14.4756 12.2398 14.9855 12.1898 15.4355 12.3798C15.5955 12.4398 15.7555 12.5298 15.9255 12.6498L17.5956 13.8298C17.8256 13.9898 18.0055 14.2098 18.1255 14.4598C18.2255 14.7098 18.2656 14.9298 18.2656 15.1598C18.2656 15.4598 18.1956 15.7498 18.0656 16.0298C17.9356 16.2898 17.7855 16.5198 17.6055 16.7298C17.2855 17.0798 16.9156 17.3398 16.5156 17.5098C16.1156 17.6798 15.6855 17.7598 15.2455 17.7598ZM9.29553 7.73979C9.23553 7.73979 9.03558 7.73979 8.78558 7.98979C8.59558 8.16979 8.46555 8.35981 8.37555 8.56981C8.28555 8.77981 8.24554 9.01981 8.24554 9.25981C8.24554 9.67981 8.34553 10.1298 8.54553 10.6098C8.75553 11.1098 9.06556 11.6398 9.44556 12.1698C9.83556 12.6998 10.2756 13.2298 10.7656 13.7198C11.2556 14.1998 11.7756 14.6498 12.3156 15.0498C12.8356 15.4298 13.3656 15.7298 13.8956 15.9598C14.6556 16.2898 15.3555 16.3698 15.9255 16.1298C16.1255 16.0498 16.3055 15.9098 16.4855 15.7298C16.5755 15.6298 16.6456 15.5298 16.7056 15.3998C16.7356 15.3298 16.7556 15.2498 16.7556 15.1798C16.7556 15.1598 16.7555 15.1298 16.7255 15.0698L15.0555 13.9098C14.9855 13.8598 14.9155 13.8198 14.8555 13.7998C14.8155 13.8198 14.7556 13.8498 14.6456 13.9598L14.2656 14.3398C13.9756 14.6298 13.5156 14.7098 13.1456 14.5798L12.9656 14.4998C12.7356 14.3798 12.4755 14.1998 12.1855 13.9498C11.9055 13.7098 11.6356 13.4598 11.3456 13.1798C11.0656 12.8898 10.8156 12.6198 10.5756 12.3398C10.3156 12.0298 10.1356 11.7798 10.0156 11.5698L9.90558 11.3098C9.87558 11.2098 9.86554 11.0998 9.86554 10.9998C9.86554 10.7198 9.96558 10.4698 10.1556 10.2698L10.5356 9.8798C10.6456 9.7698 10.6856 9.70981 10.7056 9.66981C10.6756 9.59981 10.6356 9.5398 10.5856 9.4698L9.41553 7.81981L9.29553 7.73979Z" fill="#FFD23F"/>
</svg>
